<svg width="20" height="20" viewBox="0 0 20 20" fill="none" xmlns="http://www.w3.org/2000/svg">
<g clip-path="url(#clip0_62_191)">
<path d="M17.9065 14.8704C17.5603 14.6128 17.0709 14.6847 16.8133 15.0309C16.671 15.2221 16.5207 15.4073 16.3628 15.5859C16.0771 15.9092 16.1074 16.4029 16.4307 16.6887C16.5733 16.8151 16.7573 16.8849 16.9478 16.8846C17.1639 16.8846 17.3791 16.7955 17.5335 16.6208C17.7204 16.4093 17.8984 16.1899 18.067 15.9634C18.3245 15.6173 18.2527 15.1279 17.9065 14.8704ZM19.213 11.2065C18.7917 11.1147 18.3753 11.3821 18.2835 11.8037C18.2328 12.0364 18.1723 12.2668 18.102 12.4943C17.9746 12.9066 18.2056 13.344 18.6178 13.4714C18.6946 13.4951 18.7723 13.5064 18.8487 13.5064C19.1823 13.5064 19.4912 13.291 19.5949 12.9555C19.6782 12.6855 19.7501 12.4121 19.8103 12.136C19.902 11.7145 19.6346 11.2983 19.213 11.2065ZM14.146 17.3724C13.9379 17.4886 13.725 17.5959 13.5078 17.694C13.1145 17.8716 12.9397 18.3343 13.1173 18.7276C13.2478 19.0165 13.5321 19.1875 13.8298 19.1875C13.9373 19.1875 14.0465 19.1652 14.1508 19.118C14.4084 19.0016 14.6609 18.8744 14.9078 18.7366C15.2845 18.5263 15.4194 18.0504 15.209 17.6737C14.9987 17.297 14.5228 17.1621 14.146 17.3724ZM9.21874 3.75V9.67641L6.35393 12.5412C6.04885 12.8463 6.04885 13.3409 6.35393 13.646C6.4264 13.7187 6.51251 13.7763 6.60732 13.8156C6.70213 13.8548 6.80377 13.875 6.90639 13.8748C7.00901 13.875 7.11064 13.8548 7.20545 13.8155C7.30026 13.7763 7.38638 13.7187 7.45885 13.646L10.5524 10.5524C10.6989 10.4059 10.7812 10.2072 10.7812 10V3.75C10.7812 3.31852 10.4315 2.96875 9.99999 2.96875C9.5685 2.96875 9.21874 3.31852 9.21874 3.75Z" fill="white"/>
<path d="M19.2188 1.67969C18.7873 1.67969 18.4375 2.02945 18.4375 2.46094V4.63031C16.6191 1.77844 13.4434 0 10 0C7.32891 0 4.8177 1.0402 2.92891 2.92891C1.0402 4.8177 0 7.32891 0 10C0 12.6711 1.0402 15.1823 2.92891 17.0711C4.8177 18.9598 7.32891 20 10 20C10.0066 20 10.013 19.9992 10.0195 19.999C10.0261 19.9992 10.0325 20 10.0391 20C10.3206 20 10.605 19.9881 10.8843 19.9648C11.3142 19.9287 11.6336 19.551 11.5976 19.1211C11.5616 18.6911 11.1843 18.3716 10.7539 18.4077C10.5178 18.4275 10.2773 18.4375 10.0391 18.4375C10.0325 18.4375 10.0261 18.4383 10.0195 18.4385C10.013 18.4383 10.0066 18.4375 10 18.4375C5.34754 18.4375 1.5625 14.6525 1.5625 10C1.5625 5.34754 5.34754 1.5625 10 1.5625C12.9984 1.5625 15.7561 3.16066 17.2631 5.70312H15.115C14.6835 5.70312 14.3337 6.05289 14.3337 6.48438C14.3337 6.91586 14.6835 7.26562 15.115 7.26562H17.5C17.9587 7.26616 18.4086 7.1397 18.7999 6.90027C18.8241 6.88653 18.8475 6.87151 18.87 6.85527C19.55 6.40797 20 5.63855 20 4.76562V2.46094C20 2.02945 19.6502 1.67969 19.2188 1.67969Z" fill="white"/>
</g>
<defs>
<clipPath id="clip0_62_191">
<rect width="20" height="20" fill="white"/>
</clipPath>
</defs>
</svg>
